<svg width="133" height="111" viewBox="0 0 133 111" fill="none" xmlns="http://www.w3.org/2000/svg">
<path d="M-152.304 7.85376C-189.099 -15.1994 -237.795 19.5029 -257.543 39.7357V110.244H536.816V99.8209C533.178 100.23 517.015 100.802 481.468 99.8209C437.034 98.5947 408.19 83.8799 377.009 72.2308C345.827 60.5816 300.613 50.1586 268.651 48.9324C236.69 47.7062 219.54 39.7357 176.665 35.4439C166.624 34.4387 150.497 84.9295 132.13 90.9998C78.3347 82.9998 33.3791 83.621 0.086731 82.9998C-1.38577 82.9723 -2.81258 28.7241 -4.1904 28.6996C-38.2307 31.3565 -115.51 30.9069 -152.304 7.85376Z" fill="#793EF5"/>
</svg>
